Untitled.ufo
<glyph name="numbersign" format="1">
  <advance width="768"/>
  <unicode hex="0023"/>
  <outline>
    <contour>
      <point x="128" y="256" type="line" smooth="no"/>
      <point x="128" y="384" type="line" smooth="no"/>
      <point x="0" y="384" type="line" smooth="no"/>
      <point x="0" y="512" type="line" smooth="no"/>
      <point x="128" y="512" type="line" smooth="no"/>
      <point x="128" y="640" type="line" smooth="no"/>
      <point x="0" y="640" type="line" smooth="no"/>
      <point x="0" y="768" type="line" smooth="no"/>
      <point x="128" y="768" type="line" smooth="no"/>
      <point x="128" y="896" type="line" smooth="no"/>
      <point x="256" y="896" type="line" smooth="no"/>
      <point x="256" y="768" type="line" smooth="no"/>
      <point x="384" y="768" type="line" smooth="no"/>
      <point x="384" y="896" type="line" smooth="no"/>
      <point x="512" y="896" type="line" smooth="no"/>
      <point x="512" y="768" type="line" smooth="no"/>
      <point x="640" y="768" type="line" smooth="no"/>
      <point x="640" y="640" type="line" smooth="no"/>
      <point x="512" y="640" type="line" smooth="no"/>
      <point x="512" y="512" type="line" smooth="no"/>
      <point x="640" y="512" type="line" smooth="no"/>
      <point x="640" y="384" type="line" smooth="no"/>
      <point x="512" y="384" type="line" smooth="no"/>
      <point x="512" y="256" type="line" smooth="no"/>
      <point x="384" y="256" type="line" smooth="no"/>
      <point x="384" y="384" type="line" smooth="no"/>
      <point x="256" y="384" type="line" smooth="no"/>
      <point x="256" y="256" type="line" smooth="no"/>
    </contour>
    <contour>
      <point x="256" y="512" type="line" smooth="no"/>
      <point x="384" y="512" type="line" smooth="no"/>
      <point x="384" y="640" type="line" smooth="no"/>
      <point x="256" y="640" type="line" smooth="no"/>
    </contour>
  </outline>
</glyph>
<glyph name="quotesingle" format="1">
  <advance width="768"/>
  <unicode hex="0027"/>
  <outline>
    <contour>
      <point x="219" y="768" type="line" smooth="no"/>
      <point x="128" y="859" type="line" smooth="no"/>
      <point x="421" y="1152" type="line" smooth="no"/>
      <point x="512" y="1061" type="line" smooth="no"/>
    </contour>
  </outline>
</glyph>
<glyph name="parenleft" format="1">
  <advance width="768"/>
  <unicode hex="0028"/>
  <outline>
    <contour>
      <point x="421" y="-256" type="line" smooth="no"/>
      <point x="128" y="37" type="line" smooth="no"/>
      <point x="128" y="859" type="line" smooth="no"/>
      <point x="421" y="1152" type="line" smooth="no"/>
      <point x="512" y="1061" type="line" smooth="no"/>
      <point x="256" y="805" type="line" smooth="no"/>
      <point x="256" y="91" type="line" smooth="no"/>
      <point x="512" y="-165" type="line" smooth="no"/>
    </contour>
  </outline>
</glyph>
<glyph name="asterisk" format="1">
  <advance width="768"/>
  <unicode hex="002a"/>
  <outline>
    <contour>
      <point x="256" y="128" type="line" smooth="no"/>
      <point x="256" y="384" type="line" smooth="no"/>
      <point x="219" y="384" type="line" smooth="no"/>
      <point x="91" y="256" type="line" smooth="no"/>
      <point x="0" y="347" type="line" smooth="no"/>
      <point x="101" y="448" type="line" smooth="no"/>
      <point x="0" y="549" type="line" smooth="no"/>
      <point x="91" y="640" type="line" smooth="no"/>
      <point x="219" y="512" type="line" smooth="no"/>
      <point x="256" y="512" type="line" smooth="no"/>
      <point x="256" y="768" type="line" smooth="no"/>
      <point x="384" y="768" type="line" smooth="no"/>
      <point x="384" y="512" type="line" smooth="no"/>
      <point x="421" y="512" type="line" smooth="no"/>
      <point x="549" y="640" type="line" smooth="no"/>
      <point x="640" y="549" type="line" smooth="no"/>
      <point x="539" y="448" type="line" smooth="no"/>
      <point x="640" y="347" type="line" smooth="no"/>
      <point x="549" y="256" type="line" smooth="no"/>
      <point x="421" y="384" type="line" smooth="no"/>
      <point x="384" y="384" type="line" smooth="no"/>
      <point x="384" y="128" type="line" smooth="no"/>
    </contour>
  </outline>
</glyph>
<glyph name="hyphen" format="1">
  <advance width="768"/>
  <unicode hex="002d"/>
  <outline>
    <contour>
      <point x="0" y="384" type="line" smooth="no"/>
      <point x="0" y="512" type="line" smooth="no"/>
      <point x="640" y="512" type="line" smooth="no"/>
      <point x="640" y="384" type="line" smooth="no"/>
    </contour>
  </outline>
</glyph>
<glyph name="two" format="1">
  <advance width="768"/>
  <unicode hex="0032"/>
  <outline>
    <contour>
      <point x="0" y="0" type="line" smooth="no"/>
      <point x="0" y="347" type="line" smooth="no"/>
      <point x="512" y="859" type="line" smooth="no"/>
      <point x="512" y="933" type="line" smooth="no"/>
      <point x="421" y="1024" type="line" smooth="no"/>
      <point x="219" y="1024" type="line" smooth="no"/>
      <point x="128" y="933" type="line" smooth="no"/>
      <point x="128" y="768" type="line" smooth="no"/>
      <point x="0" y="768" type="line" smooth="no"/>
      <point x="0" y="987" type="line" smooth="no"/>
      <point x="165" y="1152" type="line" smooth="no"/>
      <point x="475" y="1152" type="line" smooth="no"/>
      <point x="640" y="987" type="line" smooth="no"/>
      <point x="640" y="805" type="line" smooth="no"/>
      <point x="128" y="293" type="line" smooth="no"/>
      <point x="128" y="128" type="line" smooth="no"/>
      <point x="640" y="128" type="line" smooth="no"/>
      <point x="640" y="0" type="line" smooth="no"/>
    </contour>
  </outline>
</glyph>
<glyph name="four" format="1">
  <advance width="768"/>
  <unicode hex="0034"/>
  <outline>
    <contour>
      <point x="384" y="0" type="line" smooth="no"/>
      <point x="384" y="512" type="line" smooth="no"/>
      <point x="0" y="512" type="line" smooth="no"/>
      <point x="0" y="731" type="line" smooth="no"/>
      <point x="421" y="1152" type="line" smooth="no"/>
      <point x="512" y="1152" type="line" smooth="no"/>
      <point x="512" y="640" type="line" smooth="no"/>
      <point x="640" y="640" type="line" smooth="no"/>
      <point x="640" y="512" type="line" smooth="no"/>
      <point x="512" y="512" type="line" smooth="no"/>
      <point x="512" y="0" type="line" smooth="no"/>
    </contour>
    <contour>
      <point x="128" y="640" type="line" smooth="no"/>
      <point x="384" y="640" type="line" smooth="no"/>
      <point x="384" y="933" type="line" smooth="no"/>
      <point x="128" y="677" type="line" smooth="no"/>
    </contour>
  </outline>
</glyph>
<glyph name="six" format="1">
  <advance width="768"/>
  <unicode hex="0036"/>
  <outline>
    <contour>
      <point x="165" y="0" type="line" smooth="no"/>
      <point x="0" y="165" type="line" smooth="no"/>
      <point x="0" y="987" type="line" smooth="no"/>
      <point x="165" y="1152" type="line" smooth="no"/>
      <point x="475" y="1152" type="line" smooth="no"/>
      <point x="640" y="987" type="line" smooth="no"/>
      <point x="640" y="768" type="line" smooth="no"/>
      <point x="512" y="768" type="line" smooth="no"/>
      <point x="512" y="933" type="line" smooth="no"/>
      <point x="421" y="1024" type="line" smooth="no"/>
      <point x="219" y="1024" type="line" smooth="no"/>
      <point x="128" y="933" type="line" smooth="no"/>
      <point x="128" y="640" type="line" smooth="no"/>
      <point x="475" y="640" type="line" smooth="no"/>
      <point x="640" y="475" type="line" smooth="no"/>
      <point x="640" y="165" type="line" smooth="no"/>
      <point x="475" y="0" type="line" smooth="no"/>
    </contour>
    <contour>
      <point x="219" y="128" type="line" smooth="no"/>
      <point x="421" y="128" type="line" smooth="no"/>
      <point x="512" y="219" type="line" smooth="no"/>
      <point x="512" y="421" type="line" smooth="no"/>
      <point x="421" y="512" type="line" smooth="no"/>
      <point x="128" y="512" type="line" smooth="no"/>
      <point x="128" y="219" type="line" smooth="no"/>
    </contour>
  </outline>
</glyph>
<glyph name="less" format="1">
  <advance width="768"/>
  <unicode hex="003c"/>
  <outline>
    <contour>
      <point x="549" y="128" type="line" smooth="no"/>
      <point x="101" y="576" type="line" smooth="no"/>
      <point x="549" y="1024" type="line" smooth="no"/>
      <point x="640" y="933" type="line" smooth="no"/>
      <point x="283" y="576" type="line" smooth="no"/>
      <point x="640" y="219" type="line" smooth="no"/>
    </contour>
  </outline>
</glyph>
<glyph name="question" format="1">
  <advance width="768"/>
  <unicode hex="003f"/>
  <outline>
    <contour>
      <point x="256" y="0" type="line" smooth="no"/>
      <point x="256" y="128" type="line" smooth="no"/>
      <point x="384" y="128" type="line" smooth="no"/>
      <point x="384" y="0" type="line" smooth="no"/>
    </contour>
    <contour>
      <point x="256" y="256" type="line" smooth="no"/>
      <point x="256" y="475" type="line" smooth="no"/>
      <point x="512" y="731" type="line" smooth="no"/>
      <point x="512" y="933" type="line" smooth="no"/>
      <point x="421" y="1024" type="line" smooth="no"/>
      <point x="219" y="1024" type="line" smooth="no"/>
      <point x="128" y="933" type="line" smooth="no"/>
      <point x="128" y="768" type="line" smooth="no"/>
      <point x="0" y="768" type="line" smooth="no"/>
      <point x="0" y="987" type="line" smooth="no"/>
      <point x="165" y="1152" type="line" smooth="no"/>
      <point x="475" y="1152" type="line" smooth="no"/>
      <point x="640" y="987" type="line" smooth="no"/>
      <point x="640" y="677" type="line" smooth="no"/>
      <point x="384" y="421" type="line" smooth="no"/>
      <point x="384" y="256" type="line" smooth="no"/>
    </contour>
  </outline>
</glyph>
<glyph name="at" format="1">
  <advance width="768"/>
  <unicode hex="0040"/>
  <outline>
    <contour>
      <point x="165" y="-256" type="line" smooth="no"/>
      <point x="0" y="-91" type="line" smooth="no"/>
      <point x="0" y="731" type="line" smooth="no"/>
      <point x="165" y="896" type="line" smooth="no"/>
      <point x="475" y="896" type="line" smooth="no"/>
      <point x="640" y="731" type="line" smooth="no"/>
      <point x="640" y="0" type="line" smooth="no"/>
      <point x="421" y="0" type="line" smooth="no"/>
      <point x="256" y="165" type="line" smooth="no"/>
      <point x="256" y="347" type="line" smooth="no"/>
      <point x="421" y="512" type="line" smooth="no"/>
      <point x="512" y="512" type="line" smooth="no"/>
      <point x="512" y="677" type="line" smooth="no"/>
      <point x="421" y="768" type="line" smooth="no"/>
      <point x="219" y="768" type="line" smooth="no"/>
      <point x="128" y="677" type="line" smooth="no"/>
      <point x="128" y="-37" type="line" smooth="no"/>
      <point x="219" y="-128" type="line" smooth="no"/>
      <point x="512" y="-128" type="line" smooth="no"/>
      <point x="512" y="-256" type="line" smooth="no"/>
    </contour>
    <contour>
      <point x="475" y="128" type="line" smooth="no"/>
      <point x="512" y="128" type="line" smooth="no"/>
      <point x="512" y="384" type="line" smooth="no"/>
      <point x="475" y="384" type="line" smooth="no"/>
      <point x="384" y="293" type="line" smooth="no"/>
      <point x="384" y="219" type="line" smooth="no"/>
    </contour>
  </outline>
</glyph>
<glyph name="I" format="1">
  <advance width="768"/>
  <unicode hex="0049"/>
  <outline>
    <contour>
      <point x="128" y="0" type="line" smooth="no"/>
      <point x="128" y="128" type="line" smooth="no"/>
      <point x="256" y="128" type="line" smooth="no"/>
      <point x="256" y="1024" type="line" smooth="no"/>
      <point x="128" y="1024" type="line" smooth="no"/>
      <point x="128" y="1152" type="line" smooth="no"/>
      <point x="512" y="1152" type="line" smooth="no"/>
      <point x="512" y="1024" type="line" smooth="no"/>
      <point x="384" y="1024" type="line" smooth="no"/>
      <point x="384" y="128" type="line" smooth="no"/>
      <point x="512" y="128" type="line" smooth="no"/>
      <point x="512" y="0" type="line" smooth="no"/>
    </contour>
  </outline>
</glyph>
<glyph name="M" format="1">
  <advance width="768"/>
  <unicode hex="004d"/>
  <outline>
    <contour>
      <point x="0" y="0" type="line" smooth="no"/>
      <point x="0" y="1152" type="line" smooth="no"/>
      <point x="91" y="1152" type="line" smooth="no"/>
      <point x="320" y="923" type="line" smooth="no"/>
      <point x="549" y="1152" type="line" smooth="no"/>
      <point x="640" y="1152" type="line" smooth="no"/>
      <point x="640" y="0" type="line" smooth="no"/>
      <point x="512" y="0" type="line" smooth="no"/>
      <point x="512" y="933" type="line" smooth="no"/>
      <point x="320" y="741" type="line" smooth="no"/>
      <point x="128" y="933" type="line" smooth="no"/>
      <point x="128" y="0" type="line" smooth="no"/>
    </contour>
  </outline>
</glyph>
<glyph name="N" format="1">
  <advance width="768"/>
  <unicode hex="004e"/>
  <outline>
    <contour>
      <point x="0" y="0" type="line" smooth="no"/>
      <point x="0" y="1152" type="line" smooth="no"/>
      <point x="91" y="1152" type="line" smooth="no"/>
      <point x="512" y="731" type="line" smooth="no"/>
      <point x="512" y="1152" type="line" smooth="no"/>
      <point x="640" y="1152" type="line" smooth="no"/>
      <point x="640" y="0" type="line" smooth="no"/>
      <point x="512" y="0" type="line" smooth="no"/>
      <point x="512" y="549" type="line" smooth="no"/>
      <point x="128" y="933" type="line" smooth="no"/>
      <point x="128" y="0" type="line" smooth="no"/>
    </contour>
  </outline>
</glyph>
<glyph name="X" format="1">
  <advance width="768"/>
  <unicode hex="0058"/>
  <outline>
    <contour>
      <point x="0" y="0" type="line" smooth="no"/>
      <point x="0" y="347" type="line" smooth="no"/>
      <point x="229" y="576" type="line" smooth="no"/>
      <point x="0" y="805" type="line" smooth="no"/>
      <point x="0" y="1152" type="line" smooth="no"/>
      <point x="128" y="1152" type="line" smooth="no"/>
      <point x="128" y="859" type="line" smooth="no"/>
      <point x="320" y="667" type="line" smooth="no"/>
      <point x="512" y="859" type="line" smooth="no"/>
      <point x="512" y="1152" type="line" smooth="no"/>
      <point x="640" y="1152" type="line" smooth="no"/>
      <point x="640" y="805" type="line" smooth="no"/>
      <point x="411" y="576" type="line" smooth="no"/>
      <point x="640" y="347" type="line" smooth="no"/>
      <point x="640" y="0" type="line" smooth="no"/>
      <point x="512" y="0" type="line" smooth="no"/>
      <point x="512" y="293" type="line" smooth="no"/>
      <point x="320" y="485" type="line" smooth="no"/>
      <point x="128" y="293" type="line" smooth="no"/>
      <point x="128" y="0" type="line" smooth="no"/>
    </contour>
  </outline>
</glyph>
<glyph name="Y" format="1">
  <advance width="768"/>
  <unicode hex="0059"/>
  <outline>
    <contour>
      <point x="256" y="0" type="line" smooth="no"/>
      <point x="256" y="549" type="line" smooth="no"/>
      <point x="0" y="805" type="line" smooth="no"/>
      <point x="0" y="1152" type="line" smooth="no"/>
      <point x="128" y="1152" type="line" smooth="no"/>
      <point x="128" y="859" type="line" smooth="no"/>
      <point x="320" y="667" type="line" smooth="no"/>
      <point x="512" y="859" type="line" smooth="no"/>
      <point x="512" y="1152" type="line" smooth="no"/>
      <point x="640" y="1152" type="line" smooth="no"/>
      <point x="640" y="805" type="line" smooth="no"/>
      <point x="384" y="549" type="line" smooth="no"/>
      <point x="384" y="0" type="line" smooth="no"/>
    </contour>
  </outline>
</glyph>
<glyph name="d" format="1">
  <advance width="768"/>
  <unicode hex="0064"/>
  <outline>
    <contour>
      <point x="165" y="0" type="line" smooth="no"/>
      <point x="0" y="165" type="line" smooth="no"/>
      <point x="0" y="603" type="line" smooth="no"/>
      <point x="165" y="768" type="line" smooth="no"/>
      <point x="512" y="768" type="line" smooth="no"/>
      <point x="512" y="1152" type="line" smooth="no"/>
      <point x="640" y="1152" type="line" smooth="no"/>
      <point x="640" y="0" type="line" smooth="no"/>
    </contour>
    <contour>
      <point x="219" y="128" type="line" smooth="no"/>
      <point x="512" y="128" type="line" smooth="no"/>
      <point x="512" y="640" type="line" smooth="no"/>
      <point x="219" y="640" type="line" smooth="no"/>
      <point x="128" y="549" type="line" smooth="no"/>
      <point x="128" y="219" type="line" smooth="no"/>
    </contour>
  </outline>
</glyph>
<glyph name="f" format="1">
  <advance width="768"/>
  <unicode hex="0066"/>
  <outline>
    <contour>
      <point x="256" y="0" type="line" smooth="no"/>
      <point x="256" y="512" type="line" smooth="no"/>
      <point x="128" y="512" type="line" smooth="no"/>
      <point x="128" y="640" type="line" smooth="no"/>
      <point x="256" y="640" type="line" smooth="no"/>
      <point x="256" y="987" type="line" smooth="no"/>
      <point x="421" y="1152" type="line" smooth="no"/>
      <point x="512" y="1152" type="line" smooth="no"/>
      <point x="512" y="1024" type="line" smooth="no"/>
      <point x="475" y="1024" type="line" smooth="no"/>
      <point x="384" y="933" type="line" smooth="no"/>
      <point x="384" y="640" type="line" smooth="no"/>
      <point x="512" y="640" type="line" smooth="no"/>
      <point x="512" y="512" type="line" smooth="no"/>
      <point x="384" y="512" type="line" smooth="no"/>
      <point x="384" y="0" type="line" smooth="no"/>
    </contour>
  </outline>
</glyph>
<glyph name="v" format="1">
  <advance width="768"/>
  <unicode hex="0076"/>
  <outline>
    <contour>
      <point x="320" y="-27" type="line" smooth="no"/>
      <point x="0" y="293" type="line" smooth="no"/>
      <point x="0" y="768" type="line" smooth="no"/>
      <point x="128" y="768" type="line" smooth="no"/>
      <point x="128" y="347" type="line" smooth="no"/>
      <point x="320" y="155" type="line" smooth="no"/>
      <point x="512" y="347" type="line" smooth="no"/>
      <point x="512" y="768" type="line" smooth="no"/>
      <point x="640" y="768" type="line" smooth="no"/>
      <point x="640" y="293" type="line" smooth="no"/>
    </contour>
  </outline>
</glyph>
<glyph name="x" format="1">
  <advance width="768"/>
  <unicode hex="0078"/>
  <outline>
    <contour>
      <point x="0" y="0" type="line" smooth="no"/>
      <point x="0" y="347" type="line" smooth="no"/>
      <point x="101" y="448" type="line" smooth="no"/>
      <point x="0" y="549" type="line" smooth="no"/>
      <point x="0" y="768" type="line" smooth="no"/>
      <point x="128" y="768" type="line" smooth="no"/>
      <point x="128" y="603" type="line" smooth="no"/>
      <point x="219" y="512" type="line" smooth="no"/>
      <point x="421" y="512" type="line" smooth="no"/>
      <point x="512" y="603" type="line" smooth="no"/>
      <point x="512" y="768" type="line" smooth="no"/>
      <point x="640" y="768" type="line" smooth="no"/>
      <point x="640" y="549" type="line" smooth="no"/>
      <point x="539" y="448" type="line" smooth="no"/>
      <point x="640" y="347" type="line" smooth="no"/>
      <point x="640" y="0" type="line" smooth="no"/>
      <point x="512" y="0" type="line" smooth="no"/>
      <point x="512" y="293" type="line" smooth="no"/>
      <point x="421" y="384" type="line" smooth="no"/>
      <point x="219" y="384" type="line" smooth="no"/>
      <point x="128" y="293" type="line" smooth="no"/>
      <point x="128" y="0" type="line" smooth="no"/>
    </contour>
  </outline>
</glyph>
<glyph name="y" format="1">
  <advance width="768"/>
  <unicode hex="0079"/>
  <outline>
    <contour>
      <point x="128" y="-256" type="line" smooth="no"/>
      <point x="128" y="-128" type="line" smooth="no"/>
      <point x="421" y="-128" type="line" smooth="no"/>
      <point x="512" y="-37" type="line" smooth="no"/>
      <point x="512" y="0" type="line" smooth="no"/>
      <point x="165" y="0" type="line" smooth="no"/>
      <point x="0" y="165" type="line" smooth="no"/>
      <point x="0" y="768" type="line" smooth="no"/>
      <point x="128" y="768" type="line" smooth="no"/>
      <point x="128" y="219" type="line" smooth="no"/>
      <point x="219" y="128" type="line" smooth="no"/>
      <point x="512" y="128" type="line" smooth="no"/>
      <point x="512" y="768" type="line" smooth="no"/>
      <point x="640" y="768" type="line" smooth="no"/>
      <point x="640" y="-91" type="line" smooth="no"/>
      <point x="475" y="-256" type="line" smooth="no"/>
    </contour>
  </outline>
</glyph>
